<svg xmlns="http://www.w3.org/2000/svg" xml:space="preserve" width="64" height="64" shape-rendering="geometricPrecision" text-rendering="geometricPrecision" image-rendering="optimizeQuality" fill-rule="evenodd" clip-rule="evenodd" viewBox="0 0 64 64"><g fill-rule="nonzero"><path fill="#CCD6DD" d="M7.53 1.88h48.94a5.65 5.65 0 0 1 5.65 5.65v48.94a5.65 5.65 0 0 1-5.65 5.65H7.53a5.65 5.65 0 0 1-5.65-5.65V7.53a5.65 5.65 0 0 1 5.65-5.65"/><path fill="#E1E8ED" d="M7.53 0h48.94C60.63 0 64 3.37 64 7.53v48.94c0 4.16-3.37 7.53-7.53 7.53H7.53C3.37 64 0 60.63 0 56.47V7.53C0 3.37 3.37 0 7.53 0m0 3.76c-2.08 0-3.76 1.69-3.76 3.77v7.53h11.29V3.76zm7.53 30.12H3.76v11.3h11.3zm0-3.76v-11.3H3.76v11.3zm3.76-26.36v11.3h11.3V3.76zm11.3 15.06h-11.3v11.3h11.3zm0 15.06h-11.3v11.3h11.3zm3.76-30.12v11.3h11.3V3.76zm11.3 15.06h-11.3v11.3h11.3zm0 15.06h-11.3v11.3h11.3zM60.24 7.53c0-2.08-1.69-3.76-3.77-3.76l-7.53-.01v11.3h11.3zm0 11.29h-11.3v11.3h11.3zm0 15.06h-11.3v11.3h11.3zm-3.77 26.36c2.08 0 3.76-1.69 3.76-3.77v-7.53H48.94v11.3zm-11.29 0v-11.3h-11.3v11.3zm-15.06 0v-11.3h-11.3v11.3zm-22.59 0h7.53v-11.3H3.76v7.53c0 2.08 1.69 3.77 3.77 3.77"/><path fill="#DD2E44" d="M56.47 60.24c.61 0 1.22-.15 1.79-.45a3.77 3.77 0 0 0 1.53-5.1L46.61 30.22a3.74 3.74 0 0 0-2.77-1.94c-1.18-.18-2.37.22-3.21 1.06L29.2 40.78l-18.33-35A3.76 3.76 0 0 0 5.79 4.2 3.75 3.75 0 0 0 4.2 9.28l20.7 39.53a3.78 3.78 0 0 0 6 .92l11.49-11.49 10.77 20.02a3.76 3.76 0 0 0 3.31 1.98"/></g></svg>